<svg width="114" height="126" viewBox="0 0 114 126" fill="none" xmlns="http://www.w3.org/2000/svg">
<g clip-path="url(#clip0_2_33)">
<path d="M61.0311 103.333H30.7182C29.4175 103.333 28.3618 102.159 28.3618 100.713V27.3298C28.3618 25.8831 29.4175 24.709 30.7182 24.709H62.7796C69.2362 24.709 74.5051 26.4073 78.4403 29.7567C82.6159 33.2948 84.7319 38.5993 84.7319 45.5183C84.7319 49.7483 83.7705 53.4436 81.8713 56.4942C80.9051 58.051 79.7222 59.4295 78.3366 60.6194C80.693 61.956 82.6159 63.8168 84.0863 66.186C87.9225 72.3502 88.5823 81.5492 86.2825 88.442C86.2778 93.4635 77.936 103.333 61.0311 103.333Z" fill="#6766DB"/>
<path d="M101.717 125.799H11.3909C5.10871 125.799 0 120.117 0 113.13V12.669C0 5.68193 5.10871 0 11.3909 0H101.717C107.999 0 113.108 5.68193 113.108 12.669V113.135C113.108 120.117 107.999 125.799 101.717 125.799ZM11.3909 5.24163C7.71019 5.24163 4.71283 8.57007 4.71283 12.669V113.135C4.71283 117.229 7.71019 120.558 11.3909 120.558H101.717C105.398 120.558 108.395 117.229 108.395 113.13V12.669C108.395 8.57007 105.398 5.24163 101.717 5.24163H11.3909Z" fill="#110638"/>
<path d="M62.7701 92.8553H42.3447C41.044 92.8553 39.9883 91.6812 39.9883 90.2345V67.3391C39.9883 65.8924 41.044 64.7183 42.3447 64.7183H62.7089C66.6394 64.7183 69.8111 65.8295 72.1392 68.0205C72.2618 68.1044 72.3796 68.1987 72.488 68.3088C74.9104 70.7147 76.1546 74.1689 76.197 78.5719C76.197 83.0325 74.9622 86.5654 72.5304 89.1023C70.174 91.5921 66.8844 92.8553 62.7701 92.8553ZM44.7011 87.6137H62.7701C65.6355 87.6137 67.8364 86.8327 69.3021 85.2917C70.7772 83.7559 71.4889 81.5701 71.4889 78.6033C71.4653 75.8725 70.8338 73.8492 69.5755 72.4549C69.4718 72.3815 69.3681 72.2977 69.2785 72.2033C67.7987 70.699 65.645 69.9651 62.7089 69.9651H44.7011V87.6137ZM61.1206 60.6874H42.2693C40.9686 60.6874 39.9129 59.5133 39.9129 58.0666V37.8182C39.9129 36.3715 40.9686 35.1974 42.2693 35.1974H61.1206C64.7778 35.1974 67.6998 36.1566 69.8064 38.0488C72.045 40.0564 73.1808 43.3743 73.1808 47.8979C73.1808 51.9811 71.9649 55.1995 69.566 57.4638C69.4906 57.5372 69.4152 57.6001 69.3351 57.6578C67.1295 59.6391 64.2971 60.6874 61.1206 60.6874ZM44.6257 55.4458H61.1206C63.298 55.4458 65.1077 54.7801 66.4933 53.4697C66.5545 53.4121 66.6111 53.3596 66.6724 53.3177C67.8788 52.0807 68.4679 50.309 68.4679 47.8979C68.4679 45.0359 67.9212 43.0913 66.842 42.1268C65.5978 41.0051 63.6703 40.439 61.1206 40.439H44.6257V55.4458Z" fill="#110638"/>
</g>
<defs>
<clipPath id="clip0_2_33">
<rect width="113.108" height="125.799" fill="white"/>
</clipPath>
</defs>
</svg>
