<svg width="114" height="126" viewBox="0 0 114 126" fill="none" xmlns="http://www.w3.org/2000/svg">
<g clip-path="url(#clip0_2_24)">
<path d="M0 62.8996C0 28.1612 25.3201 0 56.5539 0C87.7877 0 113.108 28.1612 113.108 62.8996C113.108 97.638 87.7877 125.799 56.5539 125.799C25.3201 125.799 0 97.638 0 62.8996Z" fill="#333333"/>
<path d="M45.2431 100.639C51.49 100.639 56.5539 95.007 56.5539 88.0592V75.4792H45.2431C38.9963 75.4792 33.9323 81.1116 33.9323 88.0592C33.9323 95.007 38.9963 100.639 45.2431 100.639Z" fill="#0ACF83"/>
<path d="M33.9323 62.8995C33.9323 55.9517 38.9963 50.3196 45.2431 50.3196H56.5539V75.4794H45.2431C38.9963 75.4794 33.9323 69.847 33.9323 62.8995Z" fill="#A259FF"/>
<path d="M33.9323 37.7398C33.9323 30.792 38.9963 25.1598 45.2431 25.1598H56.5539V50.3197H45.2431C38.9963 50.3197 33.9323 44.6873 33.9323 37.7398Z" fill="#F24E1E"/>
<path d="M56.5539 25.1598H67.8647C74.1116 25.1598 79.1755 30.792 79.1755 37.7398C79.1755 44.6873 74.1116 50.3197 67.8647 50.3197H56.5539V25.1598Z" fill="#FF7262"/>
<path d="M78.9897 62.1073C78.9897 69.0548 73.9257 74.6872 67.6789 74.6872C61.432 74.6872 56.3681 69.0548 56.3681 62.1073C56.3681 55.1595 61.432 49.5273 67.6789 49.5273C73.9257 49.5273 78.9897 55.1595 78.9897 62.1073Z" fill="#1ABCFE"/>
</g>
<defs>
<clipPath id="clip0_2_24">
<rect width="113.108" height="125.799" fill="white"/>
</clipPath>
</defs>
</svg>
