<svg width="75" height="75" viewBox="0 0 75 75" fill="none" xmlns="http://www.w3.org/2000/svg">
<path d="M58.1659 0H16.8341C7.53688 0 0 7.53688 0 16.8341V58.1659C0 67.4631 7.53688 75 16.8341 75H58.1659C67.4631 75 75 67.4631 75 58.1659V16.8341C75 7.53688 67.4631 0 58.1659 0Z" fill="url(#paint0_linear_2_58)"/>
<path d="M25.9785 12.9893H49.3592C49.8788 13.249 50.6581 13.249 51.1777 13.5088C53.4576 13.8783 55.5894 14.8764 57.3333 16.3908C59.0772 17.9053 60.3641 19.8761 61.0495 22.0817C61.4332 23.3528 61.6942 24.6577 61.8289 25.9785V48.8396C61.4575 51.737 60.3877 54.5007 58.7115 56.893C57.2735 58.559 55.4706 59.8711 53.4431 60.7271C51.4156 61.5832 49.218 61.9602 47.0211 61.8289H27.5372C24.0601 61.9976 20.6414 60.8889 17.9252 58.7115C16.2735 57.2844 14.97 55.4984 14.1145 53.4902C13.259 51.4821 12.8741 49.3048 12.9893 47.125V28.9401C12.9463 27.6357 13.0334 26.3304 13.249 25.0433C13.5114 22.3799 14.6064 19.867 16.3786 17.8616C18.1508 15.8563 20.51 14.4604 23.1209 13.8725L25.9785 12.9893ZM17.9252 37.6689V47.8005C17.8144 49.0907 17.987 50.3895 18.4309 51.606C18.8748 52.8224 19.5792 53.9272 20.4949 54.8428C21.4105 55.7585 22.5153 56.4629 23.7318 56.9068C24.9482 57.3507 26.247 57.5233 27.5372 57.4125C34.2916 57.6723 41.0461 57.6723 47.8005 57.4125C53.7755 57.4125 57.1527 53.7755 57.4125 47.8005C57.6723 41.0461 57.6723 34.2916 57.4125 27.5372C57.4798 26.2572 57.2773 24.9774 56.8181 23.7807C56.3588 22.584 55.6532 21.4973 54.7468 20.5909C53.8405 19.6846 52.7537 18.9789 51.557 18.5196C50.3603 18.0604 49.0805 17.8579 47.8005 17.9252C41.0461 17.6654 34.2916 17.6654 27.5372 17.9252C26.247 17.8144 24.9482 17.987 23.7318 18.4309C22.5153 18.8748 21.4105 19.5792 20.4949 20.4949C19.5792 21.4105 18.8748 22.5153 18.4309 23.7318C17.987 24.9482 17.8144 26.247 17.9252 27.5372V37.6689Z" fill="white"/>
<path d="M25.0433 37.7728C25.0502 34.3989 26.3935 31.165 28.7792 28.7793C31.165 26.3935 34.3988 25.0502 37.7728 25.0433C41.128 25.1098 44.3273 26.4723 46.7003 28.8453C49.0733 31.2182 50.4358 34.4176 50.5022 37.7728C50.4954 41.1468 49.152 44.3806 46.7663 46.7663C44.3805 49.1521 41.1467 50.4954 37.7728 50.5023C34.4175 50.4358 31.2182 49.0734 28.8452 46.7004C26.4722 44.3274 25.1097 41.1281 25.0433 37.7728ZM37.7728 29.7195C36.1949 29.6938 34.6453 30.1399 33.3226 31.0006C31.9998 31.8612 30.9642 33.0973 30.3485 34.5503C29.7328 36.0033 29.5649 37.6071 29.8665 39.1561C30.1681 40.7051 30.9253 42.1287 32.0412 43.2446C33.1571 44.3605 34.5807 45.1177 36.1297 45.4193C37.6787 45.7209 39.2825 45.553 40.7355 44.9373C42.1885 44.3215 43.4246 43.286 44.2852 41.9632C45.1459 40.6405 45.592 39.0909 45.5663 37.513C45.5663 35.446 44.7452 33.4637 43.2836 32.0021C41.8221 30.5406 39.8397 29.7195 37.7728 29.7195Z" fill="white"/>
<path d="M47.6446 24.5237C47.6301 24.1104 47.7008 23.6985 47.8523 23.3138C48.0039 22.929 48.233 22.5795 48.5254 22.2871C48.8178 21.9946 49.1673 21.7655 49.5521 21.614C49.9369 21.4625 50.3487 21.3918 50.762 21.4063C51.5708 21.461 52.3323 21.807 52.9055 22.3802C53.4787 22.9534 53.8247 23.7149 53.8794 24.5237C53.8794 25.3505 53.551 26.1434 52.9664 26.7281C52.3817 27.3127 51.5888 27.6411 50.762 27.6411C49.9352 27.6411 49.1423 27.3127 48.5577 26.7281C47.973 26.1434 47.6446 25.3505 47.6446 24.5237Z" fill="white"/>
<defs>
<linearGradient id="paint0_linear_2_58" x1="-4.78005" y1="79.1566" x2="83.5469" y2="-7.87149" gradientUnits="userSpaceOnUse">
<stop stop-color="#FED576"/>
<stop offset="0.26" stop-color="#F47133"/>
<stop offset="0.61" stop-color="#BC3081"/>
<stop offset="1" stop-color="#4C63D2"/>
</linearGradient>
</defs>
</svg>
