<svg width="75" height="71" viewBox="0 0 75 71" fill="none" xmlns="http://www.w3.org/2000/svg">
<path d="M58.1659 0H16.8341C7.53688 0 0 7.10936 0 15.8792V54.8666C0 63.6364 7.53688 70.7458 16.8341 70.7458H58.1659C67.4631 70.7458 75 63.6364 75 54.8666V15.8792C75 7.10936 67.4631 0 58.1659 0Z" fill="#4C76BE"/>
<path fill-rule="evenodd" clip-rule="evenodd" d="M43.7998 22.7652H48.0862V16.5654C47.4108 16.5654 46.7094 16.4184 46.008 16.3694H42.1372C40.1883 16.3589 38.2834 16.9151 36.6817 17.9622C35.7947 18.5681 35.0456 19.3358 34.4789 20.2197C33.9122 21.1037 33.5393 22.0859 33.3824 23.1083C33.2359 23.9839 33.1577 24.8684 33.1486 25.7548V30.4353H26.8878V37.3211H33.1226V54.6462H40.7343V37.2966H46.9432L47.9044 30.3617H40.6824V25.4607C40.8123 23.4268 42.0852 22.8142 43.7998 22.7652V22.7652Z" fill="white"/>
</svg>
