<svg width="75" height="71" viewBox="0 0 75 71" fill="none" xmlns="http://www.w3.org/2000/svg">
<path d="M58.1659 0H16.8341C7.53688 0 0 7.10936 0 15.8792V54.8666C0 63.6364 7.53688 70.7458 16.8341 70.7458H58.1659C67.4631 70.7458 75 63.6364 75 54.8666V15.8792C75 7.10936 67.4631 0 58.1659 0Z" fill="#189D0E"/>
<path fill-rule="evenodd" clip-rule="evenodd" d="M18.4188 53.4698L19.0163 51.3379C19.6398 49.157 20.2893 47.0005 20.8868 44.8196C21.0135 44.4785 21.0135 44.1069 20.8868 43.7659C18.7415 39.9907 18.0993 35.616 19.0761 31.433C20.0529 27.2499 22.5844 23.5347 26.2126 20.9591C29.8409 18.3835 34.3265 17.1177 38.8581 17.3904C43.3898 17.6632 47.6684 19.4566 50.9202 22.4463C54.172 25.436 56.1823 29.4246 56.5875 33.6908C56.9928 37.957 55.7662 42.2192 53.1297 45.7066C50.4932 49.194 46.6207 51.6763 42.2126 52.7046C37.8046 53.733 33.1519 53.2395 29.096 51.3134C28.716 51.1973 28.3069 51.1973 27.927 51.3134C22.7832 52.3916 19.458 53.2738 18.4188 53.4698V53.4698ZM22.8611 49.353C24.7576 48.8874 26.4981 48.4708 28.2387 48.0297C28.4554 47.9676 28.6839 47.9507 28.9082 47.9803C29.1325 48.01 29.3473 48.0854 29.5376 48.2013C32.6984 49.9827 36.4256 50.6511 40.0589 50.0881C43.3983 49.5926 46.4834 48.106 48.8661 45.844C51.2489 43.5821 52.8053 40.6626 53.3094 37.5095C53.8135 34.3565 53.239 31.1339 51.6693 28.3097C50.0996 25.4856 47.6165 23.2069 44.5805 21.8045C41.5445 20.4021 38.1137 19.949 34.7861 20.511C31.4586 21.073 28.4075 22.6209 26.076 24.9298C23.7445 27.2388 22.2539 30.1886 21.8206 33.3511C21.3873 36.5135 22.0339 39.7239 23.6665 42.5161C23.9619 42.9287 24.149 43.4017 24.2122 43.896C24.2755 44.3903 24.2131 44.8917 24.0302 45.3587C23.5626 46.5594 23.3807 47.9072 22.8611 49.353V49.353Z" fill="white"/>
<path fill-rule="evenodd" clip-rule="evenodd" d="M42.5268 43.8392C38.8119 43.7167 32.8888 40.9476 28.8362 34.3068C28.1009 33.2445 27.7864 31.9716 27.9479 30.7121C28.1095 29.4526 28.7368 28.2872 29.7194 27.4209C30.0644 27.1771 30.4682 27.0181 30.8945 26.9583C31.3208 26.8984 31.7562 26.9395 32.1614 27.0778C32.3692 27.0778 32.5771 27.3964 32.681 27.617C33.2265 28.7687 33.7461 29.9449 34.2137 31.1212C34.4735 31.7583 34.0059 32.3464 33.0447 33.3756C32.9131 33.5183 32.8406 33.7011 32.8406 33.8902C32.8406 34.0793 32.9131 34.2621 33.0447 34.4048C34.5282 36.8477 36.8584 38.7342 39.6432 39.7469C39.8143 39.8318 40.0126 39.8538 40.1999 39.8085C40.3871 39.7632 40.5498 39.6539 40.6564 39.5018C42.1631 37.762 42.319 37.2474 43.2542 37.5905C47.0991 39.3303 47.3848 39.4038 47.4108 39.7959C47.4352 40.3828 47.3203 40.9675 47.0746 41.5072C46.8288 42.0469 46.4584 42.5281 45.9904 42.9155C45.5224 43.303 44.9686 43.587 44.3693 43.7468C43.7701 43.9066 43.1406 43.9382 42.5268 43.8392V43.8392Z" fill="white"/>
</svg>
