<svg width="75" height="75" viewBox="0 0 75 75" fill="none" xmlns="http://www.w3.org/2000/svg">
<path d="M58.1659 0H16.8341C7.53688 0 0 7.53688 0 16.8341V58.1659C0 67.4631 7.53688 75 16.8341 75H58.1659C67.4631 75 75 67.4631 75 58.1659V16.8341C75 7.53688 67.4631 0 58.1659 0Z" fill="#7D3DAF"/>
<path d="M56.7111 26.7059C56.0063 24.5542 54.7855 22.6077 53.1553 21.0363C51.5251 19.465 49.535 18.3166 47.3589 17.6913C40.8886 16.4494 34.2413 16.4494 27.771 17.6913C25.5576 18.278 23.5238 19.4035 21.8512 20.9674C20.1785 22.5313 18.919 24.4849 18.185 26.6539C16.9873 32.0875 16.9873 37.7167 18.185 43.1503C18.8644 45.2163 20.0167 47.0953 21.5501 48.6377C23.0835 50.1801 24.9556 51.3433 27.0177 52.0349V56.4253C27.0184 56.7772 27.1243 57.121 27.3217 57.4123C27.5192 57.7037 27.7991 57.9295 28.1257 58.0607C28.4523 58.1919 28.8106 58.2225 29.1548 58.1487C29.4989 58.0748 29.8131 57.8999 30.0572 57.6463L34.4995 53.0481H37.3831C40.6699 53.0454 43.9491 52.7323 47.177 52.1129C49.3532 51.4876 51.3432 50.3392 52.9734 48.7678C54.6036 47.1965 55.8244 45.25 56.5293 43.0983C57.7717 37.7113 57.8337 32.1191 56.7111 26.7059ZM53.204 42.293C52.6608 43.783 51.7837 45.129 50.64 46.2277C49.4962 47.3264 48.1161 48.1488 46.6055 48.6317C43.1816 49.2816 39.6977 49.5603 36.2141 49.4631C36.1853 49.4509 36.1544 49.4446 36.1231 49.4446C36.0919 49.4446 36.061 49.4509 36.0322 49.4631L32.7589 52.9961L29.3038 56.5292C29.2458 56.5842 29.1732 56.6213 29.0946 56.6361C29.0161 56.6509 28.9349 56.6427 28.8609 56.6126C28.7869 56.5824 28.7231 56.5316 28.6773 56.4661C28.6314 56.4006 28.6054 56.3233 28.6024 56.2434V48.9954C28.5978 48.9392 28.5751 48.8859 28.5376 48.8437C28.5001 48.8016 28.4499 48.7727 28.3945 48.7616C26.8839 48.2787 25.5038 47.4563 24.36 46.3576C23.2163 45.2589 22.3392 43.9129 21.796 42.4229C20.7172 37.5108 20.7172 32.4232 21.796 27.5112C22.3392 26.0211 23.2163 24.6752 24.36 23.5765C25.5038 22.4777 26.8839 21.6554 28.3945 21.1724C34.4018 20.024 40.5722 20.024 46.5795 21.1724C48.0902 21.6554 49.4702 22.4777 50.614 23.5765C51.7578 24.6752 52.6348 26.0211 53.178 27.5112C54.2662 32.4213 54.275 37.509 53.204 42.4229V42.293Z" fill="white"/>
<path d="M46.2937 41.1499C45.7533 40.6967 45.1897 40.2718 44.6051 39.877C44.0076 39.4613 43.4361 39.0457 42.8126 38.656C42.5388 38.4515 42.2062 38.341 41.8644 38.341C41.5226 38.341 41.19 38.4515 40.9162 38.656C40.3447 39.1236 40.0589 40.0329 39.2536 40.1368C38.7809 40.1492 38.3139 40.0325 37.9027 39.7991C36.668 39.2546 35.5649 38.4508 34.6684 37.4422C33.7719 36.4336 33.1029 35.2439 32.707 33.9539C32.6269 33.7924 32.5852 33.6146 32.5852 33.4343C32.5852 33.2541 32.6269 33.0762 32.707 32.9148C32.8194 32.745 32.96 32.5957 33.1226 32.4731L33.6682 32.0575C34.0254 31.8098 34.2733 31.434 34.3604 31.0082C34.4475 30.5824 34.367 30.1394 34.1358 29.7714C33.3956 28.5062 32.5249 27.322 31.5379 26.2383C31.3557 25.9897 31.0911 25.814 30.7912 25.7427C30.4914 25.6713 30.176 25.7088 29.9013 25.8486C29.1254 26.2111 28.4349 26.7334 27.875 27.3813C27.5184 27.7005 27.2569 28.1121 27.1194 28.5705C26.9818 29.0289 26.9736 29.5164 27.0956 29.9792C27.5113 30.9923 27.9269 32.0055 28.3945 32.9927C29.3845 35.0761 30.6516 37.0161 32.1614 38.7599C34.8947 41.6845 38.2633 43.942 42.0073 45.3585C42.371 45.5143 42.7607 45.5923 43.1503 45.7222C43.5066 45.6426 43.8545 45.5295 44.1895 45.3844C45.2557 44.8041 46.1039 43.8921 46.6055 42.7866C46.7486 42.5193 46.7958 42.211 46.7391 41.9131C46.6823 41.6153 46.5251 41.3459 46.2937 41.1499ZM37.513 24.6536H37.2272C37.1418 24.6529 37.0571 24.6705 36.979 24.7053C36.901 24.74 36.8312 24.7912 36.7746 24.8552C36.718 24.9192 36.6757 24.9946 36.6507 25.0764C36.6257 25.1581 36.6186 25.2443 36.6297 25.329C36.6297 25.7707 37.1493 25.7707 37.513 25.8226C37.8767 25.8746 38.6301 25.8226 39.1496 26.0045C40.9304 26.3362 42.5633 27.2153 43.8206 28.5192C45.0779 29.8231 45.8971 31.4868 46.1639 33.2785C46.1639 33.9539 46.2937 34.6553 46.3457 35.3567C46.3977 36.0582 46.5535 36.0322 46.9432 36.0322C47.0257 36.0298 47.1066 36.0096 47.1806 35.973C47.2545 35.9364 47.3196 35.8842 47.3714 35.82C47.4232 35.7558 47.4606 35.6812 47.4808 35.6012C47.5011 35.5213 47.5038 35.4378 47.4888 35.3567C47.4888 34.5254 47.4888 33.6941 47.229 32.7589C46.8104 30.4861 45.6098 28.4314 43.8352 26.951C42.0607 25.4706 39.824 24.6578 37.513 24.6536Z" fill="white"/>
<path d="M43.7738 34.1618C43.7491 34.3167 43.7491 34.4746 43.7738 34.6295C43.8091 34.7396 43.8784 34.8356 43.9718 34.9038C44.0652 34.9719 44.1778 35.0087 44.2934 35.0087C44.409 35.0087 44.5216 34.9719 44.615 34.9038C44.7084 34.8356 44.7777 34.7396 44.813 34.6295C44.8214 34.517 44.8214 34.4042 44.813 34.2917V33.4604V33.1487C44.6898 32.0877 44.3048 31.0741 43.6926 30.1988C43.0804 29.3236 42.2602 28.6144 41.3059 28.1348C40.3141 27.6281 39.2235 27.3443 38.1105 27.3035C38.038 27.2962 37.9649 27.3043 37.8957 27.3271C37.8265 27.3499 37.7629 27.387 37.7091 27.436C37.6552 27.485 37.6122 27.5448 37.5829 27.6115C37.5536 27.6782 37.5386 27.7502 37.539 27.8231C37.528 27.8954 37.5323 27.9692 37.5518 28.0398C37.5713 28.1103 37.6055 28.1759 37.6521 28.2323C37.6986 28.2887 37.7566 28.3346 37.8222 28.3671C37.8878 28.3995 37.9595 28.4178 38.0326 28.4206L38.9678 28.5765C39.6072 28.6762 40.2285 28.8688 40.8123 29.148C41.7771 29.6253 42.581 30.375 43.1244 31.3042C43.5779 32.1869 43.8012 33.1698 43.7738 34.1618Z" fill="white"/>
<path d="M42.319 33.7722C42.3429 33.6172 42.3429 33.4595 42.319 33.3046C42.3225 32.8623 42.2383 32.4237 42.0714 32.0141C41.9045 31.6045 41.6582 31.232 41.3467 30.9181C41.0352 30.6041 40.6646 30.355 40.2563 30.1849C39.848 30.0149 39.4101 29.9274 38.9678 29.9274C38.8251 29.9178 38.6837 29.9597 38.5693 30.0455C38.4549 30.1313 38.3751 30.2553 38.3443 30.395C38.3293 30.4667 38.3289 30.5408 38.3431 30.6127C38.3573 30.6846 38.3859 30.7529 38.4272 30.8135C38.4684 30.8742 38.5214 30.9258 38.583 30.9655C38.6447 31.0052 38.7137 31.032 38.7859 31.0444C39.0717 31.0444 39.3834 31.0444 39.6952 31.1743C39.928 31.2401 40.1477 31.3456 40.3447 31.4861C40.7557 31.8014 41.0411 32.2526 41.15 32.759C41.1667 33.0185 41.1667 33.2789 41.15 33.5384C41.1499 33.6191 41.1662 33.699 41.1978 33.7732C41.2295 33.8474 41.2758 33.9145 41.3341 33.9703C41.3923 34.0262 41.4613 34.0696 41.5368 34.0981C41.6124 34.1265 41.6929 34.1394 41.7735 34.1359C41.8932 34.1526 42.0148 34.1247 42.1154 34.0577C42.2159 33.9907 42.2884 33.8891 42.319 33.7722Z" fill="white"/>
</svg>
